<svg id="Calque_1" xmlns="http://www.w3.org/2000/svg" viewBox="0 0 373.33 66.62"><defs><style>.cls-1{fill:#fff;}</style></defs><g><path class="cls-1" d="M352.34,33.06c-27.42,15.46-36.31,3.71-36.31,3.71-5.04-7.42,11.75-17.35,11.75-17.35,8.4-4.76,13.71-5.53,13.71-5.53,7.69-1.4,3.51,2.41,2.32,3.41,7.88-6.45-1.62-4.8-1.62-4.8-4.36,.8-9.05,2.57-13.66,4.83-7.01,3.44-12.43,7.89-15.47,12.24-6.41,2.72-12.67,3.86-12.67,3.86-18.45,3.29-23.07-4.45-23.07-4.45-4.74-8.32,13.06-19.27,13.06-19.27,10.75-6.67,15.73-7.82,15.73-7.82,16.19-4.99-.49,8.28-.49,8.28-7.7,6.38-26.36,19.69-26.36,19.69,26.69-17.21,33.29-25.43,33.29-25.43,1.55-1.76,1.9-2.82,1.56-3.44h0c-.09-.17-.23-.31-.41-.41-2.8-2.02-12.5,1.96-17.5,4.25-17.43,7.66-28.72,20.21-25.29,28.22,3.48,8.11,20.72,8.49,38.51,.86,.57-.24,1.13-.49,1.68-.74-1.08,2.77-1.04,5.36,.37,7.47,3.7,5.54,15.58,5.92,27.69,1.08,22.36-8.94,34.16-25.35,34.16-25.35-8.12,8.68-20.99,16.72-20.99,16.72"/><path class="cls-1" d="M144.74,15.5c1.59-1.43,2.37-3.4,2.37-5.95,0-2.41-.76-4.26-2.29-5.55-1.52-1.29-3.71-1.94-6.56-1.94s-4.91,.72-6.47,2.15c-1.57,1.43-2.35,3.41-2.35,5.94,0,2.36,.76,4.2,2.27,5.52,1.51,1.31,3.64,1.97,6.37,1.97s5.07-.71,6.65-2.14m-9.41-8.85c.7-.76,1.69-1.14,2.95-1.14s2.3,.35,2.98,1.05c.68,.7,1.02,1.72,1.02,3.06,0,1.44-.35,2.56-1.05,3.36-.7,.79-1.68,1.19-2.96,1.19s-2.34-.36-3.01-1.08c-.67-.72-1.01-1.8-1.01-3.25,0-1.37,.36-2.43,1.06-3.19"/><path class="cls-1" d="M157.14,2.37c.97,0,1.7,.04,2.17,.1,.47,.07,.89,.17,1.25,.33,.58,.25,1.04,.67,1.38,1.25,.34,.58,.51,1.24,.51,1.96,0,1.1-.22,2.01-.68,2.75-.46,.74-1.12,1.27-2,1.6l2.63,6.97h-4.9l-2.79-8.58h.11c1.08,0,1.88-.15,2.4-.45,.53-.3,.79-.76,.79-1.38,0-.53-.2-.93-.59-1.2-.39-.27-.98-.41-1.76-.41-.2,0-.4,0-.6,.03-.21,.02-.41,.04-.63,.07l-.39,7.06c-.03,.63-.05,1.36-.08,2.18-.03,.81-.05,1.71-.06,2.68h-4.78c.21-1.88,.37-4.09,.51-6.63,.13-2.54,.22-5.31,.27-8.33h7.23Z"/><path class="cls-1" d="M171.08,17.33c2.8,0,4.94-.69,6.41-2.07,1.46-1.37,2.2-3.38,2.2-6.02,0-1.3-.21-2.46-.64-3.46-.42-.99-1.04-1.8-1.87-2.42-.48-.35-1.03-.61-1.66-.76-.63-.15-1.66-.23-3.11-.23h-7.23c-.04,3.02-.13,5.79-.26,8.33-.13,2.54-.3,4.75-.51,6.63h6.66Zm-1.69-5.02c0-.46,.02-.81,.03-1.05l.25-5.42h2.41c.97,0,1.68,.29,2.14,.87,.45,.58,.68,1.5,.68,2.73,0,.85-.14,1.59-.42,2.22-.27,.63-.67,1.14-1.2,1.51-.36,.26-.77,.44-1.25,.55-.47,.11-1.2,.16-2.19,.16h-.47c0-.58,0-1.12,.02-1.58"/><path class="cls-1" d="M189.72,2.37c.98,0,1.7,.04,2.17,.1,.47,.07,.89,.17,1.25,.33,.58,.25,1.04,.67,1.38,1.25,.34,.58,.51,1.24,.51,1.96,0,1.1-.23,2.01-.68,2.75-.46,.74-1.12,1.27-2,1.6l2.64,6.97h-4.91l-2.78-8.58h.11c1.08,0,1.88-.15,2.4-.45,.52-.3,.79-.76,.79-1.38,0-.53-.2-.93-.59-1.2-.39-.27-.98-.41-1.76-.41-.2,0-.4,0-.6,.03-.2,.02-.41,.04-.62,.07l-.39,7.06c-.03,.63-.06,1.36-.08,2.18-.03,.81-.05,1.71-.06,2.68h-4.78c.21-1.88,.37-4.09,.51-6.63,.13-2.54,.22-5.31,.27-8.33h7.23Z"/><path class="cls-1" d="M197,17.32c.2-1.84,.36-4.01,.49-6.5,.13-2.5,.21-5.31,.25-8.46h12.02l-.18,3.46c-.6-.03-1.13-.05-1.59-.07-.46-.02-.77-.03-.94-.03h-4.74c-.06,.59-.1,1.01-.11,1.29-.01,.28-.02,.54-.02,.77v.28h3.88c.5,0,.96,0,1.36-.02,.4-.01,.76-.03,1.1-.06l-.17,3.53c-.25-.02-.52-.04-.8-.04-.28,0-.71-.01-1.28-.01h-4.27c-.05,.31-.08,.61-.1,.91-.02,.29-.04,.59-.04,.9,0,.17,0,.3,.01,.39,0,.09,0,.16,.01,.23,.43,.05,.9,.09,1.41,.11,.5,.03,1.11,.03,1.84,.03s1.49,0,2.19-.04c.7-.03,1.35-.07,1.96-.13l-.18,3.48h-12.1Z"/><path class="cls-1" d="M225.54,17.33c2.8,0,4.93-.69,6.4-2.07,1.47-1.37,2.2-3.38,2.2-6.02,0-1.3-.21-2.46-.63-3.46-.42-.99-1.05-1.8-1.87-2.42-.48-.35-1.03-.61-1.66-.76-.63-.15-1.66-.23-3.11-.23h-7.22c-.04,3.02-.13,5.79-.26,8.33-.13,2.54-.3,4.75-.51,6.63h6.67Zm-1.7-5.02c.01-.46,.02-.81,.03-1.05l.25-5.42h2.41c.97,0,1.68,.29,2.14,.87,.45,.58,.68,1.5,.68,2.73,0,.85-.14,1.59-.41,2.22-.27,.63-.68,1.14-1.21,1.51-.36,.26-.78,.44-1.25,.55-.47,.11-1.2,.16-2.19,.16h-.48c0-.58,0-1.12,.02-1.58"/><path class="cls-1" d="M236.17,17.32c.2-1.84,.36-4.01,.48-6.5,.13-2.5,.21-5.31,.25-8.46h12.02l-.18,3.46c-.6-.03-1.13-.05-1.6-.07-.46-.02-.77-.03-.94-.03h-4.74c-.06,.59-.1,1.01-.11,1.29-.02,.28-.03,.54-.03,.77v.28h3.88c.51,0,.96,0,1.36-.02,.4-.01,.76-.03,1.1-.06l-.17,3.53c-.25-.02-.52-.04-.8-.04-.28,0-.71-.01-1.29-.01h-4.27c-.04,.31-.08,.61-.1,.91-.02,.29-.04,.59-.04,.9,0,.17,0,.3,0,.39,0,.09,0,.16,.02,.23,.43,.05,.9,.09,1.41,.11,.5,.03,1.12,.03,1.84,.03,.76,0,1.49,0,2.19-.04,.69-.03,1.35-.07,1.96-.13l-.18,3.48h-12.1Z"/><path class="cls-1" d="M250.24,13.38c.89,.3,1.69,.53,2.41,.66,.72,.14,1.41,.21,2.07,.21,.46,0,.83-.08,1.11-.26,.28-.18,.42-.41,.42-.7,0-.42-.54-1.04-1.61-1.87-.18-.14-.31-.25-.41-.32,0,0-.02-.02-.03-.02-2.42-1.91-3.63-3.53-3.63-4.88,0-1.27,.53-2.27,1.59-3,1.06-.72,2.54-1.08,4.43-1.08,.52,0,1.1,.03,1.74,.11,.64,.07,1.37,.19,2.2,.37l.28,3.39c-.81-.21-1.47-.37-1.96-.46-.51-.09-.94-.14-1.29-.14-.64,0-1.12,.09-1.44,.26-.32,.18-.48,.43-.48,.78,0,.4,.58,1.05,1.76,1.95,.21,.16,.36,.29,.48,.37,1.27,.99,2.14,1.82,2.61,2.5,.47,.68,.7,1.4,.7,2.16,0,1.39-.53,2.45-1.59,3.16-1.06,.72-2.63,1.07-4.7,1.07-.61,0-1.28-.04-2-.13-.73-.08-1.51-.2-2.34-.36l-.34-3.77Z"/><path class="cls-1" d="M0,36.7c.19-1.84,.36-4.01,.49-6.5,.13-2.5,.21-5.31,.25-8.46H12.75l-.18,3.46c-.6-.03-1.13-.05-1.59-.07-.46-.02-.77-.03-.94-.03H5.3c-.06,.59-.1,1.01-.11,1.29-.02,.27-.02,.54-.02,.77v.28h3.88c.51,0,.96,0,1.35-.03,.4-.01,.77-.03,1.1-.06l-.18,3.53c-.25-.02-.52-.04-.79-.04-.28,0-.71-.01-1.29-.01H4.98c-.04,.31-.08,.61-.1,.91-.02,.29-.04,.59-.04,.89,0,.17,0,.31,0,.4,0,.09,0,.16,.02,.23,.43,.05,.9,.09,1.4,.11,.5,.03,1.12,.03,1.85,.03s1.49-.01,2.18-.04c.7-.03,1.36-.07,1.97-.13l-.18,3.48H0Z"/><path class="cls-1" d="M23.25,36.7c-.13-.29-.26-.56-.38-.81-.13-.24-.23-.45-.32-.62l-1.9-3.34-1.96,3.07c-.23,.36-.43,.67-.58,.95-.15,.27-.27,.53-.37,.75h-5.14l5.79-7.91-4.46-7.05h5.37c.09,.23,.18,.43,.26,.61,.08,.18,.16,.35,.24,.5l1.51,2.95,1.52-2.44c.09-.14,.19-.31,.3-.52,.11-.21,.29-.57,.56-1.1h5.01l-5.11,7.12,5.06,7.84h-5.39Z"/><path class="cls-1" d="M37.18,21.74c1.03,0,1.76,.03,2.19,.11,.44,.08,.83,.19,1.17,.35,.58,.28,1.03,.74,1.37,1.38,.34,.64,.51,1.37,.51,2.19,0,1.6-.48,2.88-1.43,3.84-.95,.97-2.2,1.44-3.75,1.44-.11,0-.24,0-.39-.01s-.32-.03-.51-.05l-1.01-2.87c.88,0,1.54-.15,1.97-.45,.43-.3,.64-.76,.64-1.38,0-.51-.16-.91-.47-1.18-.31-.29-.75-.43-1.32-.43-.22,0-.58,.03-1.08,.09h-.06l-.34,7.08c-.03,.77-.05,1.56-.08,2.37-.02,.8-.05,1.63-.07,2.48h-4.77c.2-1.88,.37-4.09,.5-6.63,.13-2.54,.22-5.31,.26-8.33h6.65Z"/><path class="cls-1" d="M44,36.7c.2-1.84,.36-4.01,.48-6.5,.13-2.5,.21-5.31,.25-8.46h12.02l-.18,3.46c-.6-.03-1.13-.05-1.59-.07-.46-.02-.77-.03-.94-.03h-4.74c-.06,.59-.09,1.01-.11,1.29-.01,.27-.02,.54-.02,.77v.28h3.88c.51,0,.96,0,1.36-.03,.4-.01,.76-.03,1.1-.06l-.18,3.53c-.25-.02-.52-.04-.79-.04-.28,0-.71-.01-1.29-.01h-4.27c-.05,.31-.08,.61-.09,.91-.03,.29-.04,.59-.04,.89,0,.17,0,.31,0,.4,0,.09,.01,.16,.02,.23,.43,.05,.9,.09,1.4,.11,.5,.03,1.12,.03,1.85,.03s1.49-.01,2.19-.04c.7-.03,1.35-.07,1.96-.13l-.18,3.48h-12.1Z"/><path class="cls-1" d="M66.41,21.74c.98,0,1.7,.03,2.17,.1,.47,.07,.89,.17,1.25,.33,.58,.25,1.04,.67,1.38,1.25,.34,.58,.51,1.24,.51,1.96,0,1.09-.23,2.01-.68,2.75-.45,.74-1.12,1.27-2,1.6l2.64,6.97h-4.91l-2.78-8.58h.11c1.08,0,1.88-.15,2.4-.45,.52-.3,.79-.76,.79-1.38,0-.53-.2-.93-.59-1.2-.39-.27-.98-.41-1.76-.41-.2,0-.4,0-.61,.02-.2,.02-.41,.04-.62,.07l-.39,7.06c-.03,.63-.06,1.36-.08,2.18-.03,.81-.05,1.71-.06,2.68h-4.78c.21-1.88,.38-4.09,.51-6.63,.13-2.54,.22-5.31,.27-8.33h7.23Z"/><path class="cls-1" d="M86.33,21.74l-.19,3.45c-.64-.07-1.27-.12-1.88-.15-.62-.03-1.22-.05-1.82-.05h-.52l-.41,6.84c-.02,.45-.04,.91-.05,1.37,0,.47,0,.94,0,1.43,0,.56,0,.98,0,1.27,0,.29,0,.56,.02,.8h-4.83c.14-1.23,.28-2.84,.4-4.82,.12-1.99,.22-4.28,.3-6.89-.93,.02-1.76,.04-2.49,.07-.73,.03-1.36,.08-1.89,.13l.18-3.45h13.19Z"/><path class="cls-1" d="M86.99,32.75c.88,.3,1.69,.53,2.41,.66,.72,.14,1.41,.21,2.07,.21,.46,0,.83-.08,1.11-.26,.28-.18,.42-.41,.42-.7,0-.42-.54-1.04-1.61-1.87-.17-.14-.31-.25-.4-.32-.01,0-.02-.02-.03-.03-2.42-1.91-3.62-3.53-3.62-4.88,0-1.27,.53-2.27,1.59-2.99,1.06-.72,2.54-1.08,4.43-1.08,.53,0,1.1,.04,1.74,.11,.64,.07,1.37,.19,2.2,.37l.28,3.39c-.81-.21-1.47-.37-1.97-.46-.5-.09-.93-.13-1.28-.13-.64,0-1.12,.08-1.43,.25-.32,.18-.48,.43-.48,.78,0,.39,.59,1.05,1.76,1.95,.2,.16,.37,.29,.48,.37,1.27,.99,2.14,1.82,2.61,2.5,.47,.68,.71,1.4,.71,2.16,0,1.39-.53,2.45-1.59,3.16-1.06,.71-2.62,1.06-4.7,1.06-.61,0-1.27-.04-2-.13-.73-.08-1.51-.2-2.35-.36l-.34-3.76Z"/><polygon class="cls-1" points="105.41 32.44 100.02 32.44 100.23 29.11 105.61 29.11 105.41 32.44"/><path class="cls-1" d="M121.07,25.33c-.6-.2-1.2-.35-1.81-.44-.6-.1-1.19-.15-1.77-.15-1.59,0-2.82,.42-3.7,1.25-.88,.83-1.33,2-1.33,3.5,0,1.39,.39,2.42,1.17,3.09,.78,.67,1.98,1,3.62,1,.59,0,1.18-.04,1.76-.11,.58-.08,1.19-.2,1.82-.37l-.52,3.5c-.67,.14-1.35,.26-2.04,.33-.7,.08-1.4,.12-2.12,.12-2.76,0-4.87-.63-6.32-1.91-1.45-1.28-2.17-3.13-2.17-5.56,0-2.58,.78-4.57,2.34-5.99,1.56-1.43,3.76-2.14,6.6-2.14,.71,0,1.42,.04,2.13,.12s1.43,.19,2.16,.36l.18,3.42Z"/><path class="cls-1" d="M138.14,34.87c1.59-1.43,2.38-3.41,2.38-5.95,0-2.41-.77-4.26-2.29-5.55-1.53-1.29-3.71-1.94-6.56-1.94s-4.91,.72-6.47,2.15c-1.57,1.43-2.35,3.41-2.35,5.94,0,2.36,.75,4.2,2.27,5.52,1.51,1.31,3.63,1.97,6.38,1.97s5.06-.71,6.65-2.14m-9.4-8.85c.7-.76,1.69-1.14,2.96-1.14s2.3,.35,2.98,1.05c.68,.7,1.02,1.71,1.02,3.06,0,1.44-.35,2.56-1.05,3.36-.7,.79-1.68,1.19-2.95,1.19-1.34,0-2.34-.36-3.01-1.08-.67-.72-1-1.8-1-3.25,0-1.37,.35-2.43,1.06-3.19"/><path class="cls-1" d="M149.82,21.74c.03,.21,.07,.43,.11,.67,.04,.24,.09,.52,.14,.84l1.58,8.09,2.42-7.59c.14-.42,.25-.79,.35-1.1,.09-.31,.18-.61,.25-.91h6.39c-.04,.78-.09,1.66-.12,2.66,0,.21-.01,.36-.01,.44l-.3,8.54c0,.07,0,.21,0,.41,0,.21-.01,.37-.01,.5,0,.32,0,.68,.02,1.08,0,.4,.03,.84,.05,1.31h-4.42c.05-.39,.09-.8,.14-1.23,.04-.43,.06-.88,.08-1.33l.28-5.21c0-.11,.03-.58,.05-1.41,.02-.83,.04-1.56,.06-2.2l-3.26,9.57c-.14,.44-.25,.79-.33,1.05-.08,.26-.14,.51-.2,.76h-3.67c-.03-.22-.07-.46-.11-.73-.05-.27-.1-.55-.16-.86l-2.06-9.7-.61,7.31c-.03,.44-.07,.98-.11,1.61-.04,.63-.08,1.43-.12,2.38h-3.95c.28-1.83,.54-4.01,.76-6.55,.23-2.53,.41-5.33,.56-8.4h6.25Z"/><path class="cls-1" d="M170.77,21.74c1.02,0,1.76,.03,2.2,.11,.43,.08,.83,.19,1.17,.35,.57,.28,1.04,.74,1.37,1.38,.34,.64,.51,1.37,.51,2.19,0,1.6-.47,2.88-1.42,3.84-.95,.97-2.2,1.44-3.75,1.44-.11,0-.25,0-.4-.01-.15-.01-.32-.03-.51-.05l-1.01-2.87c.88,0,1.53-.15,1.97-.45,.43-.3,.64-.76,.64-1.38,0-.51-.16-.91-.47-1.18-.31-.29-.75-.43-1.31-.43-.22,0-.59,.03-1.08,.09h-.07l-.34,7.08c-.03,.77-.06,1.56-.08,2.37-.02,.8-.04,1.63-.07,2.48h-4.77c.2-1.88,.37-4.09,.51-6.63,.13-2.54,.22-5.31,.26-8.33h6.65Z"/><path class="cls-1" d="M190.23,21.74l-.19,3.45c-.64-.07-1.26-.12-1.88-.15-.61-.03-1.22-.05-1.83-.05h-.52l-.41,6.84c-.02,.45-.04,.91-.05,1.37-.02,.47-.02,.94-.02,1.43,0,.56,0,.98,0,1.27,0,.29,.01,.56,.02,.8h-4.83c.15-1.23,.28-2.84,.4-4.82,.12-1.99,.22-4.28,.3-6.89-.93,.02-1.75,.04-2.49,.07-.73,.03-1.36,.08-1.89,.13l.19-3.45h13.19Z"/><path class="cls-1" d="M189.22,36.7h4.95c.08-.28,.17-.57,.27-.86,.1-.29,.2-.57,.31-.85l1.25-2.97h5.34l.81,3.38c.07,.26,.12,.5,.16,.71,.04,.21,.07,.41,.09,.59h4.9l-4.38-13.36c-.09-.26-.16-.52-.21-.78-.07-.26-.11-.53-.14-.8h-5.94c-.2,.48-.35,.87-.46,1.14-.12,.27-.22,.5-.3,.66l-6.64,13.15Zm11.3-8.1h-3.23l2-4.77,1.23,4.77"/><path class="cls-1" d="M209.05,21.75c-.03,2.97-.1,5.71-.24,8.23-.13,2.51-.32,4.75-.55,6.71h7.87c1.77,0,3.12-.36,4.05-1.09,.93-.73,1.4-1.78,1.4-3.16,0-1.09-.31-1.93-.93-2.51-.62-.59-1.56-.95-2.83-1.06,1.13-.17,2-.59,2.61-1.25,.62-.66,.92-1.48,.92-2.5,0-1.17-.38-2.03-1.14-2.57-.76-.54-1.98-.81-3.66-.81h-7.5Zm4.08,11.33c0-.45,0-.78,0-.98,0-.21,.01-.39,.02-.55l.07-1.23h2.04c.65,0,1.15,.14,1.48,.43,.33,.28,.49,.71,.49,1.27,0,.63-.19,1.09-.57,1.38-.39,.3-.98,.44-1.79,.44h-1.74v-.77m.32-7.07c.02-.24,.03-.53,.05-.85,.02-.32,.03-.52,.04-.6h1.31c.74,0,1.25,.11,1.53,.33,.28,.21,.43,.6,.43,1.14s-.18,.98-.57,1.23c-.38,.25-1,.38-1.86,.38h-1.01l.09-1.63"/><path class="cls-1" d="M229.24,21.74c-.2,1.5-.35,3.1-.46,4.76-.11,1.66-.16,3.36-.16,5.08,0,.36,.01,.89,.04,1.61,0,.03,0,.05,.01,.06,.42,.04,.82,.07,1.2,.08,.38,.02,.75,.02,1.1,.02,.64,0,1.25,0,1.87-.03,.62-.03,1.32-.08,2.11-.14l-.19,3.51h-11.16c.2-1.84,.36-4.01,.48-6.5,.13-2.5,.21-5.32,.25-8.46h4.89Z"/><path class="cls-1" d="M236.16,36.7c.2-1.84,.36-4.01,.49-6.5,.12-2.5,.21-5.31,.25-8.46h12.02l-.18,3.46c-.6-.03-1.13-.05-1.6-.07-.46-.02-.78-.03-.93-.03h-4.75c-.06,.59-.1,1.01-.11,1.29-.01,.27-.02,.54-.02,.77v.28h3.88c.5,0,.96,0,1.35-.03,.4-.01,.76-.03,1.1-.06l-.18,3.53c-.24-.02-.51-.04-.79-.04-.28,0-.71-.01-1.29-.01h-4.27c-.05,.31-.08,.61-.1,.91-.02,.29-.03,.59-.03,.89,0,.17,0,.31,0,.4,0,.09,0,.16,.02,.23,.44,.05,.9,.09,1.41,.11,.51,.03,1.12,.03,1.84,.03,.76,0,1.49-.01,2.2-.04,.69-.03,1.35-.07,1.96-.13l-.17,3.48h-12.1Z"/><path class="cls-1" d="M250.23,32.75c.89,.3,1.69,.53,2.42,.66,.72,.14,1.41,.21,2.07,.21,.46,0,.83-.08,1.11-.26,.28-.18,.42-.41,.42-.7,0-.42-.54-1.04-1.61-1.87-.18-.14-.31-.25-.41-.32,0,0-.02-.02-.03-.03-2.42-1.91-3.62-3.53-3.62-4.88,0-1.27,.53-2.27,1.59-2.99,1.06-.72,2.54-1.08,4.44-1.08,.52,0,1.1,.04,1.74,.11,.64,.07,1.37,.19,2.2,.37l.28,3.39c-.81-.21-1.46-.37-1.96-.46-.5-.09-.93-.13-1.28-.13-.64,0-1.12,.08-1.43,.25-.32,.18-.48,.43-.48,.78,0,.39,.59,1.05,1.77,1.95,.2,.16,.36,.29,.48,.37,1.27,.99,2.14,1.82,2.61,2.5,.47,.68,.7,1.4,.7,2.16,0,1.39-.52,2.45-1.58,3.16-1.06,.71-2.63,1.06-4.7,1.06-.61,0-1.28-.04-2.01-.13-.73-.08-1.51-.2-2.34-.36l-.34-3.76Z"/></g><g><path class="cls-1" d="M222.29,63.82l-.29,2.51-1.62,.18c-.31,.02-.61,.05-.92,.07-.31,.02-.56,.04-.75,.04-2.04,0-3.56-.38-4.55-1.15-.99-.77-1.67-1.55-2.05-2.34s-.56-1.72-.56-2.79c0-.99,.17-1.88,.51-2.67,.34-.79,1-1.58,1.97-2.39,.97-.81,2.53-1.21,4.67-1.21,.5,0,1,.03,1.49,.08,.49,.05,1.06,.14,1.73,.25l.09,1.02,.15,1.45c-.2-.06-.43-.13-.71-.2s-.62-.14-1.03-.22-.88-.11-1.4-.11c-.66,0-1.26,.11-1.79,.33-.53,.22-.97,.51-1.32,.89-.35,.37-.61,.79-.78,1.26-.17,.47-.26,.98-.26,1.54,0,1.13,.34,2.08,1.01,2.85,.67,.77,1.62,1.15,2.83,1.15,.28,0,.57,0,.86-.03,.29-.02,.6-.05,.93-.1,.32-.05,.55-.09,.67-.11,.12-.03,.5-.12,1.12-.28Z"/><path class="cls-1" d="M228.87,66.62c-.87,0-1.67-.14-2.39-.42-.72-.28-1.29-.65-1.69-1.11-.4-.46-.7-.96-.89-1.49s-.28-1.1-.28-1.71c0-.74,.12-1.41,.38-2,.25-.59,.73-1.2,1.44-1.83,.71-.62,1.85-.94,3.43-.94s2.69,.31,3.4,.94c.71,.62,1.19,1.23,1.44,1.81,.25,.58,.38,1.25,.38,2,0,.65-.09,1.23-.28,1.74-.18,.5-.48,.99-.89,1.46s-.97,.84-1.69,1.13c-.72,.28-1.5,.43-2.36,.43Zm2.18-4.76c0-.73-.19-1.34-.56-1.83-.37-.49-.92-.74-1.62-.74s-1.29,.24-1.65,.72c-.37,.48-.55,1.09-.55,1.85s.18,1.37,.54,1.86,.92,.74,1.66,.74,1.29-.25,1.65-.76c.35-.45,.53-1.06,.53-1.84Z"/><path class="cls-1" d="M238.71,58.75c.43-.55,.92-.95,1.49-1.22,.56-.27,1.25-.4,2.06-.4,.51,0,.99,.06,1.44,.17,.45,.12,.83,.29,1.15,.54s.56,.55,.73,.94c.17,.38,.26,.85,.26,1.39v6.24h-3.03v-5.29c0-.47-.16-.85-.47-1.13-.31-.28-.71-.42-1.2-.42-.43,0-.8,.09-1.13,.27-.32,.18-.61,.52-.84,1.01-.24,.49-.36,1.23-.36,2.23v3.33h-3.05v-9.05h2.96v1.4Z"/><path class="cls-1" d="M254.81,64.26c0,.4-.1,.75-.3,1.04-.2,.29-.47,.53-.82,.73-.34,.19-.75,.34-1.22,.45-.47,.1-.92,.15-1.35,.15-.18,0-.35,0-.5,0s-.4-.03-.73-.06-.6-.07-.81-.1c-.2-.03-.55-.1-1.05-.21l-.37-2.31c.08,.04,.28,.11,.57,.21,.29,.1,.53,.18,.72,.23,.18,.05,.39,.1,.62,.15s.48,.07,.75,.07c.15,0,.31-.01,.48-.04,.17-.03,.35-.08,.53-.16,.18-.08,.28-.24,.28-.48,0-.32-.36-.73-1.07-1.25-.72-.52-1.21-.91-1.49-1.15-.28-.25-.51-.54-.72-.88-.2-.34-.3-.71-.3-1.11,0-.32,.06-.62,.18-.91,.12-.29,.34-.55,.65-.77,.31-.22,.68-.39,1.09-.51s.94-.17,1.58-.17c.15,0,.37,.01,.68,.04,.31,.02,.54,.04,.7,.04l1.54,.22,.26,2.18c-.32-.12-.61-.21-.88-.27-.27-.06-.51-.1-.72-.13-.21-.02-.42-.04-.64-.04-.17,0-.32,0-.45,.02-.13,.01-.29,.05-.5,.13-.2,.07-.3,.23-.3,.47,0,.28,.35,.67,1.05,1.16,.7,.5,1.2,.89,1.5,1.18s.55,.62,.74,.97c.2,.36,.29,.74,.29,1.15Z"/><path class="cls-1" d="M265.68,62.22h-6.5c0,.42,.24,.93,.73,1.53,.49,.59,1.15,.89,1.98,.89,.48,0,.9-.04,1.27-.12,.37-.08,.69-.16,.96-.24,.28-.08,.56-.16,.85-.25l-.29,2.24c-.51,.11-1.04,.19-1.57,.25s-1.13,.09-1.79,.09c-.83,0-1.57-.11-2.2-.32s-1.29-.63-1.97-1.25-1.02-1.68-1.02-3.18c0-.64,.08-1.22,.26-1.75,.17-.52,.37-.94,.6-1.25s.53-.61,.9-.87,.83-.48,1.36-.64c.53-.16,1.12-.24,1.77-.24,.76,0,1.42,.09,1.99,.27,.57,.18,1.16,.55,1.76,1.12,.61,.56,.91,1.49,.91,2.77v.93Zm-2.92-1.45l-.06-.55c-.17-.86-.72-1.29-1.65-1.29-.53,0-.95,.16-1.29,.49-.33,.33-.53,.78-.59,1.35h3.58Z"/><path class="cls-1" d="M270.34,56.02h-3.03v-1.91h3.03v1.91Zm0,10.38h-3.03v-9.05h3.03v9.05Z"/><path class="cls-1" d="M275.78,66.4h-3.03v-12.13h3.03v12.13Z"/><path class="cls-1" d="M287.01,58.75c.43-.55,.92-.95,1.49-1.22,.56-.27,1.25-.4,2.06-.4,.51,0,.99,.06,1.44,.17,.45,.12,.83,.29,1.15,.54s.56,.55,.73,.94c.17,.38,.26,.85,.26,1.39v6.24h-3.03v-5.29c0-.47-.16-.85-.47-1.13-.31-.28-.71-.42-1.2-.42-.43,0-.8,.09-1.13,.27-.32,.18-.61,.52-.84,1.01-.24,.49-.36,1.23-.36,2.23v3.33h-3.05v-9.05h2.96v1.4Z"/><path class="cls-1" d="M305.04,66.4h-2.97v-4.36c-.12,.1-.33,.19-.62,.29-.29,.1-.67,.22-1.13,.37s-.83,.32-1.11,.52c-.28,.19-.42,.46-.42,.8s.12,.56,.37,.7,.56,.21,.96,.21c.22,0,.42-.02,.59-.05,.17-.04,.37-.09,.61-.16l-.46,1.78c-.18,0-.47,.02-.86,.06-.39,.04-.62,.06-.7,.06-1.16,0-2.03-.25-2.61-.76-.58-.51-.86-1.17-.86-1.98,0-.47,.1-.87,.29-1.19,.2-.32,.47-.59,.84-.82,.36-.22,.78-.41,1.27-.55s1.06-.29,1.74-.44c.67-.15,1.18-.29,1.51-.45,.34-.15,.5-.38,.5-.68,0-.19-.05-.35-.15-.48-.1-.13-.22-.22-.36-.28s-.29-.1-.45-.13c-.16-.02-.31-.04-.46-.04-.55,0-1.08,.06-1.6,.18-.51,.12-.86,.21-1.04,.26s-.52,.18-1.04,.37l.22-1.96c.18-.05,.52-.12,1-.21s.97-.17,1.47-.24c.5-.07,1.07-.1,1.72-.1,1.27,0,2.15,.17,2.63,.5,.48,.33,.79,.65,.93,.94,.14,.29,.21,.62,.21,1v6.84Z"/><path class="cls-1" d="M313.19,64.13l-.33,2.2c-.7,.2-1.44,.29-2.22,.29-.62,0-1.1-.05-1.42-.16s-.57-.23-.73-.36c-.17-.13-.33-.34-.49-.62-.16-.28-.24-.7-.24-1.27v-4.76h-1.32v-2.09h1.32v-1.59l3.03-.67v2.26h2.19v2.09h-2.19v3.53c0,.39,.05,.68,.15,.88,.1,.2,.22,.33,.38,.4s.34,.1,.56,.1c.27,0,.52-.03,.75-.08,.15-.01,.26-.04,.35-.07,.08-.03,.16-.06,.22-.07Z"/><path class="cls-1" d="M317.6,56.02h-3.03v-1.91h3.03v1.91Zm0,10.38h-3.03v-9.05h3.03v9.05Z"/><path class="cls-1" d="M324.65,66.62c-.87,0-1.67-.14-2.39-.42-.72-.28-1.29-.65-1.69-1.11-.4-.46-.7-.96-.89-1.49s-.28-1.1-.28-1.71c0-.74,.12-1.41,.38-2,.25-.59,.73-1.2,1.44-1.83,.71-.62,1.85-.94,3.43-.94s2.69,.31,3.4,.94c.71,.62,1.19,1.23,1.44,1.81,.25,.58,.38,1.25,.38,2,0,.65-.09,1.23-.28,1.74-.18,.5-.48,.99-.89,1.46s-.97,.84-1.69,1.13c-.72,.28-1.5,.43-2.36,.43Zm2.18-4.76c0-.73-.19-1.34-.56-1.83-.37-.49-.92-.74-1.62-.74s-1.29,.24-1.65,.72c-.37,.48-.55,1.09-.55,1.85s.18,1.37,.54,1.86,.92,.74,1.66,.74,1.29-.25,1.65-.76c.35-.45,.53-1.06,.53-1.84Z"/><path class="cls-1" d="M334.49,58.75c.43-.55,.92-.95,1.49-1.22,.56-.27,1.25-.4,2.06-.4,.51,0,.99,.06,1.44,.17,.45,.12,.83,.29,1.15,.54s.56,.55,.73,.94c.17,.38,.26,.85,.26,1.39v6.24h-3.03v-5.29c0-.47-.16-.85-.47-1.13-.31-.28-.71-.42-1.2-.42-.43,0-.8,.09-1.13,.27-.32,.18-.61,.52-.84,1.01-.24,.49-.36,1.23-.36,2.23v3.33h-3.05v-9.05h2.96v1.4Z"/><path class="cls-1" d="M352.52,66.4h-2.97v-4.36c-.12,.1-.33,.19-.62,.29-.29,.1-.67,.22-1.13,.37s-.83,.32-1.11,.52c-.28,.19-.42,.46-.42,.8s.12,.56,.37,.7,.56,.21,.96,.21c.22,0,.42-.02,.59-.05,.17-.04,.37-.09,.61-.16l-.46,1.78c-.18,0-.47,.02-.86,.06-.39,.04-.62,.06-.7,.06-1.16,0-2.03-.25-2.61-.76-.58-.51-.86-1.17-.86-1.98,0-.47,.1-.87,.29-1.19,.2-.32,.47-.59,.84-.82,.36-.22,.78-.41,1.27-.55s1.06-.29,1.74-.44c.67-.15,1.18-.29,1.51-.45,.34-.15,.5-.38,.5-.68,0-.19-.05-.35-.15-.48-.1-.13-.22-.22-.36-.28s-.29-.1-.45-.13c-.16-.02-.31-.04-.46-.04-.55,0-1.08,.06-1.6,.18-.51,.12-.86,.21-1.04,.26s-.52,.18-1.04,.37l.22-1.96c.18-.05,.52-.12,1-.21s.97-.17,1.47-.24c.5-.07,1.07-.1,1.72-.1,1.27,0,2.15,.17,2.63,.5,.48,.33,.79,.65,.93,.94,.14,.29,.21,.62,.21,1v6.84Z"/><path class="cls-1" d="M357.73,66.4h-3.03v-12.13h3.03v12.13Z"/></g></svg>