<svg id="OEC_logo-noir" xmlns="http://www.w3.org/2000/svg" width="241.109" height="27.122" viewBox="0 0 241.109 27.122">
  <path id="Tracé_11" data-name="Tracé 11" d="M323.265,19.906c-17.7,9.3-23.442,2.233-23.442,2.233-3.254-4.466,7.586-10.442,7.586-10.442a29.822,29.822,0,0,1,8.851-3.328c4.965-.843,2.266,1.45,1.5,2.052,5.088-3.882-1.046-2.889-1.046-2.889a36.766,36.766,0,0,0-8.819,2.907,26.252,26.252,0,0,0-9.988,7.366,46.106,46.106,0,0,1-8.18,2.323c-11.912,1.98-14.894-2.678-14.894-2.678-3.06-5.007,8.432-11.6,8.432-11.6,6.94-4.014,10.155-4.706,10.155-4.706,10.452-3-.316,4.983-.316,4.983-4.971,3.84-17.018,11.85-17.018,11.85,17.231-10.357,21.492-15.3,21.492-15.3,1-1.059,1.227-1.7,1.007-2.07h0a.632.632,0,0,0-.265-.247c-1.808-1.216-8.07,1.18-11.3,2.558C275.767,7.527,268.478,15.08,270.693,19.9c2.247,4.881,13.377,5.109,24.862.518.368-.144.73-.295,1.085-.445a4.449,4.449,0,0,0,.239,4.5c2.389,3.334,10.059,3.563,17.877.65A53.25,53.25,0,0,0,336.81,9.862c-5.242,5.224-13.551,10.062-13.551,10.062" transform="translate(-95.7 -0.026)" fill="#f5f5f5"/>
  <path id="Tracé_12" data-name="Tracé 12" d="M139.318,10.737a4.884,4.884,0,0,0,1.53-3.841,4.423,4.423,0,0,0-1.478-3.583,6.376,6.376,0,0,0-4.235-1.252,5.847,5.847,0,0,0-4.177,1.388,4.924,4.924,0,0,0-1.517,3.835,4.486,4.486,0,0,0,1.466,3.564,6.088,6.088,0,0,0,4.113,1.272,6.308,6.308,0,0,0,4.293-1.382m-6.075-5.714a2.466,2.466,0,0,1,1.9-.736,2.609,2.609,0,0,1,1.924.678,2.724,2.724,0,0,1,.659,1.976,3.187,3.187,0,0,1-.678,2.169,2.415,2.415,0,0,1-1.911.768,2.584,2.584,0,0,1-1.943-.7,2.981,2.981,0,0,1-.652-2.1,2.925,2.925,0,0,1,.684-2.06" transform="translate(-45.839 -0.747)" fill="#f5f5f5"/>
  <path id="Tracé_13" data-name="Tracé 13" d="M154.3,2.37a11.893,11.893,0,0,1,1.4.065,3.132,3.132,0,0,1,.807.213,1.888,1.888,0,0,1,.891.807,2.466,2.466,0,0,1,.329,1.265,3.292,3.292,0,0,1-.439,1.775A2.493,2.493,0,0,1,156,7.528l1.7,4.5H154.53l-1.8-5.539h.071a3.2,3.2,0,0,0,1.549-.291.954.954,0,0,0,.51-.891.883.883,0,0,0-.381-.775,2.008,2.008,0,0,0-1.136-.265,2.6,2.6,0,0,0-.387.019c-.136.013-.265.026-.407.045L152.3,8.891c-.019.407-.032.878-.052,1.407s-.032,1.1-.039,1.73H149.12c.136-1.214.239-2.641.329-4.28s.142-3.428.174-5.378h4.668Z" transform="translate(-52.809 -0.856)" fill="#f5f5f5"/>
  <path id="Tracé_14" data-name="Tracé 14" d="M168.716,12.028a5.833,5.833,0,0,0,4.138-1.336,5.081,5.081,0,0,0,1.42-3.887,5.628,5.628,0,0,0-.413-2.234,3.722,3.722,0,0,0-1.207-1.562,2.965,2.965,0,0,0-1.072-.491,9.615,9.615,0,0,0-2.008-.148h-4.668c-.026,1.95-.084,3.738-.168,5.378s-.194,3.067-.329,4.28h4.3Zm-1.091-3.241c0-.3.013-.523.019-.678l.161-3.5h1.556a1.653,1.653,0,0,1,1.382.562,2.888,2.888,0,0,1,.439,1.763,3.5,3.5,0,0,1-.271,1.433,2.236,2.236,0,0,1-.775.975,2.183,2.183,0,0,1-.807.355,6.835,6.835,0,0,1-1.414.1h-.3c0-.374,0-.723.013-1.02" transform="translate(-58.224 -0.856)" fill="#f5f5f5"/>
  <path id="Tracé_15" data-name="Tracé 15" d="M186.885,2.37a11.813,11.813,0,0,1,1.4.065,3.131,3.131,0,0,1,.807.213,1.888,1.888,0,0,1,.891.807,2.466,2.466,0,0,1,.329,1.265,3.351,3.351,0,0,1-.439,1.775,2.493,2.493,0,0,1-1.291,1.033l1.7,4.5h-3.17l-1.795-5.539h.071a3.2,3.2,0,0,0,1.549-.291.965.965,0,0,0,.51-.891.883.883,0,0,0-.381-.775,2.009,2.009,0,0,0-1.136-.265,2.6,2.6,0,0,0-.387.019c-.129.013-.265.026-.4.045L184.9,8.891c-.019.407-.039.878-.052,1.407s-.032,1.1-.039,1.73H181.72c.136-1.214.239-2.641.329-4.28s.142-3.428.174-5.378h4.668Z" transform="translate(-64.354 -0.856)" fill="#f5f5f5"/>
  <path id="Tracé_16" data-name="Tracé 16" d="M197,12.018q.194-1.782.316-4.2c.084-1.614.136-3.428.161-5.462h7.76l-.116,2.234c-.387-.019-.73-.032-1.027-.045s-.5-.019-.607-.019h-3.06c-.039.381-.065.652-.071.833s-.013.349-.013.5V6.04h2.5c.323,0,.62,0,.878-.013s.491-.019.71-.039l-.11,2.279c-.161-.013-.336-.026-.517-.026s-.458-.006-.826-.006h-2.757c-.032.2-.052.394-.065.588s-.026.381-.026.581c0,.11,0,.194.006.252a1.055,1.055,0,0,0,.006.148c.278.032.581.058.91.071s.717.019,1.188.019.962,0,1.414-.026.872-.045,1.265-.084l-.116,2.247H197Z" transform="translate(-69.766 -0.853)" fill="#f5f5f5"/>
  <path id="Tracé_17" data-name="Tracé 17" d="M223.18,12.028a5.816,5.816,0,0,0,4.132-1.336,5.057,5.057,0,0,0,1.42-3.887,5.744,5.744,0,0,0-.407-2.234,3.774,3.774,0,0,0-1.207-1.562,2.965,2.965,0,0,0-1.072-.491,9.615,9.615,0,0,0-2.008-.148h-4.661c-.026,1.95-.084,3.738-.168,5.378s-.194,3.067-.329,4.28h4.306Zm-1.1-3.241q.01-.445.019-.678l.161-3.5h1.556a1.653,1.653,0,0,1,1.382.562,2.888,2.888,0,0,1,.439,1.763,3.617,3.617,0,0,1-.265,1.433,2.24,2.24,0,0,1-1.588,1.33,6.835,6.835,0,0,1-1.414.1h-.31c0-.374,0-.723.013-1.02" transform="translate(-77.514 -0.856)" fill="#f5f5f5"/>
  <path id="Tracé_18" data-name="Tracé 18" d="M236.156,12.018q.194-1.782.31-4.2c.084-1.614.136-3.428.161-5.462h7.76l-.116,2.234c-.387-.019-.73-.032-1.033-.045s-.5-.019-.607-.019h-3.06c-.039.381-.065.652-.071.833s-.019.349-.019.5V6.04h2.5c.329,0,.62,0,.878-.013s.491-.019.71-.039l-.11,2.279c-.161-.013-.336-.026-.516-.026s-.458-.006-.833-.006h-2.757c-.026.2-.052.394-.065.588s-.026.381-.026.581v.252a.531.531,0,0,0,.013.148c.278.032.581.058.91.071s.723.019,1.188.019c.491,0,.962,0,1.414-.026s.872-.045,1.265-.084l-.116,2.247H236.13Z" transform="translate(-83.623 -0.853)" fill="#f5f5f5"/>
  <path id="Tracé_19" data-name="Tracé 19" d="M250.233,9.39a11.258,11.258,0,0,0,1.556.426,7,7,0,0,0,1.336.136,1.309,1.309,0,0,0,.717-.168.518.518,0,0,0,.271-.452c0-.271-.349-.671-1.039-1.207-.116-.09-.2-.161-.265-.207,0,0-.013-.013-.019-.013-1.562-1.233-2.344-2.279-2.344-3.151a2.23,2.23,0,0,1,1.027-1.937,5.049,5.049,0,0,1,2.86-.7,9.034,9.034,0,0,1,1.123.071,13.859,13.859,0,0,1,1.42.239l.181,2.189c-.523-.136-.949-.239-1.265-.3a4.979,4.979,0,0,0-.833-.09,2.04,2.04,0,0,0-.93.168.543.543,0,0,0-.31.5c0,.258.374.678,1.136,1.259.136.1.232.187.31.239a8.342,8.342,0,0,1,1.685,1.614,2.408,2.408,0,0,1,.452,1.395,2.3,2.3,0,0,1-1.026,2.04,5.425,5.425,0,0,1-3.034.691,10.448,10.448,0,0,1-1.291-.084q-.707-.077-1.511-.232L250.22,9.39Z" transform="translate(-88.613 -0.768)" fill="#f5f5f5"/>
  <path id="Tracé_20" data-name="Tracé 20" d="M0,31.4c.123-1.188.232-2.589.316-4.2s.136-3.428.161-5.462H8.232l-.116,2.234c-.387-.019-.73-.032-1.027-.045s-.5-.019-.607-.019H3.422c-.039.381-.065.652-.071.833s-.013.349-.013.5v.181h2.5c.329,0,.62,0,.872-.019s.5-.019.71-.039l-.116,2.279c-.161-.013-.336-.026-.51-.026s-.458-.006-.833-.006H3.215c-.026.2-.052.394-.065.588s-.026.381-.026.575v.258a.53.53,0,0,0,.013.148c.278.032.581.058.9.071s.723.019,1.194.019.962-.006,1.407-.026.878-.045,1.272-.084L7.8,31.4H0Z" transform="translate(0 -9.145)" fill="#f5f5f5"/>
  <path id="Tracé_21" data-name="Tracé 21" d="M19.476,31.4c-.084-.187-.168-.362-.245-.523s-.148-.291-.207-.4L17.8,28.319,16.532,30.3c-.148.232-.278.433-.374.613s-.174.342-.239.484H12.6l3.738-5.107L13.459,21.74h3.467c.058.148.116.278.168.394s.1.226.155.323l.975,1.9.981-1.575c.058-.09.123-.2.194-.336s.187-.368.362-.71h3.235l-3.3,4.6L22.962,31.4h-3.48Z" transform="translate(-4.465 -9.144)" fill="#f5f5f5"/>
  <path id="Tracé_22" data-name="Tracé 22" d="M34.547,21.74a9.032,9.032,0,0,1,1.414.071,3.054,3.054,0,0,1,.755.226,1.969,1.969,0,0,1,.884.891,2.967,2.967,0,0,1,.329,1.414,3.372,3.372,0,0,1-.923,2.479,3.23,3.23,0,0,1-2.421.93c-.071,0-.155,0-.252-.006s-.207-.019-.329-.032l-.652-1.853a2.244,2.244,0,0,0,1.272-.291,1.01,1.01,0,0,0,.413-.891.964.964,0,0,0-.3-.762,1.2,1.2,0,0,0-.852-.278,6.654,6.654,0,0,0-.7.058h-.039l-.22,4.571c-.019.5-.032,1.007-.052,1.53s-.026,1.052-.045,1.6H29.75q.194-1.821.323-4.28c.084-1.64.142-3.428.168-5.378h4.293Z" transform="translate(-10.543 -9.144)" fill="#f5f5f5"/>
  <path id="Tracé_23" data-name="Tracé 23" d="M44,31.4q.194-1.782.31-4.2c.084-1.614.136-3.428.161-5.462h7.76l-.116,2.234c-.387-.019-.73-.032-1.027-.045s-.5-.019-.607-.019h-3.06c-.039.381-.058.652-.071.833s-.013.349-.013.5v.181h2.5c.329,0,.62,0,.878-.019s.491-.019.71-.039l-.116,2.279c-.161-.013-.336-.026-.51-.026s-.458-.006-.833-.006H47.212c-.026.2-.052.394-.058.588a5.619,5.619,0,0,0-.026.575v.258a.979.979,0,0,0,.013.148c.278.032.581.058.9.071s.723.019,1.194.019.962-.006,1.414-.026.872-.045,1.265-.084L51.8,31.4H43.99Z" transform="translate(-15.59 -9.145)" fill="#f5f5f5"/>
  <path id="Tracé_24" data-name="Tracé 24" d="M63.571,21.736a10.552,10.552,0,0,1,1.4.065,3.132,3.132,0,0,1,.807.213,1.888,1.888,0,0,1,.891.807A2.466,2.466,0,0,1,67,24.086a3.367,3.367,0,0,1-.439,1.775,2.468,2.468,0,0,1-1.291,1.033l1.7,4.5H63.8l-1.795-5.539h.071a3.2,3.2,0,0,0,1.549-.291.965.965,0,0,0,.51-.891.883.883,0,0,0-.381-.775,2.009,2.009,0,0,0-1.136-.265c-.129,0-.258,0-.394.013s-.265.026-.4.045l-.252,4.558c-.019.407-.039.878-.052,1.407s-.032,1.1-.039,1.73H58.4q.2-1.821.329-4.28c.084-1.64.142-3.428.174-5.378h4.668Z" transform="translate(-20.696 -9.141)" fill="#f5f5f5"/>
  <path id="Tracé_25" data-name="Tracé 25" d="M81.6,21.74l-.123,2.227c-.413-.045-.82-.077-1.214-.1s-.788-.032-1.175-.032h-.336l-.265,4.416c-.013.291-.026.588-.032.884v1.743c0,.187,0,.362.013.516H75.346c.09-.794.181-1.834.258-3.112s.142-2.763.194-4.448c-.6.013-1.136.026-1.608.045s-.878.052-1.22.084l.116-2.227H81.6Z" transform="translate(-25.842 -9.144)" fill="#f5f5f5"/>
  <path id="Tracé_26" data-name="Tracé 26" d="M86.99,28.76a11.017,11.017,0,0,0,1.556.426,7,7,0,0,0,1.336.136,1.31,1.31,0,0,0,.717-.168.518.518,0,0,0,.271-.452c0-.271-.349-.671-1.039-1.207-.11-.09-.2-.161-.258-.207-.006,0-.013-.013-.019-.019-1.562-1.233-2.337-2.279-2.337-3.151a2.211,2.211,0,0,1,1.027-1.93,5.049,5.049,0,0,1,2.86-.7,10.379,10.379,0,0,1,1.123.071,13.857,13.857,0,0,1,1.42.239l.181,2.189c-.523-.136-.949-.239-1.272-.3a4.757,4.757,0,0,0-.826-.084,2,2,0,0,0-.923.161.543.543,0,0,0-.31.5c0,.252.381.678,1.136,1.259.129.1.239.187.31.239a8.342,8.342,0,0,1,1.685,1.614,2.416,2.416,0,0,1,.458,1.395,2.3,2.3,0,0,1-1.027,2.04,5.47,5.47,0,0,1-3.034.684,10.525,10.525,0,0,1-1.291-.084c-.471-.052-.975-.129-1.517-.232L87,28.76Z" transform="translate(-30.807 -9.066)" fill="#f5f5f5"/>
  <path id="Tracé_27" data-name="Tracé 27" d="M103.5,31.26h-3.48l.136-2.15h3.473Z" transform="translate(-35.422 -11.708)" fill="#f5f5f5"/>
  <path id="Tracé_28" data-name="Tracé 28" d="M116.318,23.955a6.847,6.847,0,0,0-1.169-.284,6.944,6.944,0,0,0-1.143-.1,3.343,3.343,0,0,0-2.389.807,2.963,2.963,0,0,0-.859,2.26,2.488,2.488,0,0,0,.755,1.995,3.521,3.521,0,0,0,2.337.646,8.468,8.468,0,0,0,2.311-.31l-.336,2.26a12.723,12.723,0,0,1-1.317.213,11.987,11.987,0,0,1-1.369.077,5.987,5.987,0,0,1-4.08-1.233,4.53,4.53,0,0,1-1.4-3.59,4.958,4.958,0,0,1,1.511-3.867,6.077,6.077,0,0,1,4.261-1.382,12.273,12.273,0,0,1,1.375.077,12.081,12.081,0,0,1,1.395.232l.116,2.208Z" transform="translate(-38.127 -9.053)" fill="#f5f5f5"/>
  <path id="Tracé_29" data-name="Tracé 29" d="M132.721,30.107a4.9,4.9,0,0,0,1.537-3.841,4.443,4.443,0,0,0-1.478-3.583,6.388,6.388,0,0,0-4.235-1.252,5.847,5.847,0,0,0-4.177,1.388,4.924,4.924,0,0,0-1.517,3.835,4.465,4.465,0,0,0,1.466,3.564,6.083,6.083,0,0,0,4.119,1.272,6.3,6.3,0,0,0,4.293-1.382m-6.069-5.714a2.471,2.471,0,0,1,1.911-.736,2.6,2.6,0,0,1,1.924.678,2.714,2.714,0,0,1,.659,1.976,3.187,3.187,0,0,1-.678,2.169,2.41,2.41,0,0,1-1.9.768,2.526,2.526,0,0,1-1.943-.7,2.981,2.981,0,0,1-.646-2.1,2.9,2.9,0,0,1,.684-2.06" transform="translate(-43.506 -9.044)" fill="#f5f5f5"/>
  <path id="Tracé_30" data-name="Tracé 30" d="M147.155,21.74c.019.136.045.278.071.433s.058.336.09.542l1.02,5.223,1.562-4.9c.09-.271.161-.51.226-.71s.116-.394.161-.588h4.125c-.026.5-.058,1.072-.077,1.717,0,.136-.006.232-.006.284l-.194,5.514v.265c0,.136-.006.239-.006.323,0,.207,0,.439.013.7s.019.542.032.846h-2.854c.032-.252.058-.516.09-.794s.039-.568.052-.859l.181-3.364c0-.071.019-.374.032-.91s.026-1.007.039-1.42l-2.1,6.178q-.136.426-.213.678c-.052.168-.09.329-.129.491H146.9c-.019-.142-.045-.3-.071-.471s-.065-.355-.1-.555l-1.33-6.262L145,28.816c-.019.284-.045.633-.071,1.039s-.052.923-.077,1.537H142.3c.181-1.181.349-2.589.491-4.229s.265-3.441.362-5.423h4.035Z" transform="translate(-50.393 -9.144)" fill="#f5f5f5"/>
  <path id="Tracé_31" data-name="Tracé 31" d="M168.14,21.74a9.238,9.238,0,0,1,1.42.071,3.14,3.14,0,0,1,.755.226,1.969,1.969,0,0,1,.885.891,2.967,2.967,0,0,1,.329,1.414,3.368,3.368,0,0,1-.917,2.479,3.23,3.23,0,0,1-2.421.93c-.071,0-.161,0-.258-.006s-.207-.019-.329-.032l-.652-1.853a2.259,2.259,0,0,0,1.272-.291,1.01,1.01,0,0,0,.413-.891.964.964,0,0,0-.3-.762,1.193,1.193,0,0,0-.846-.278,6.525,6.525,0,0,0-.7.058h-.045l-.219,4.571c-.019.5-.039,1.007-.052,1.53s-.026,1.052-.045,1.6h-3.08q.194-1.821.329-4.28c.084-1.64.142-3.428.168-5.378h4.293Z" transform="translate(-57.849 -9.144)" fill="#f5f5f5"/>
  <path id="Tracé_32" data-name="Tracé 32" d="M185.485,21.74l-.123,2.227c-.413-.045-.813-.077-1.214-.1s-.788-.032-1.181-.032h-.336l-.265,4.416c-.013.291-.026.588-.032.884s-.013.607-.013.923v.82c0,.187.006.362.013.516h-3.118c.1-.794.181-1.834.258-3.112s.142-2.763.194-4.448c-.6.013-1.13.026-1.608.045s-.878.052-1.22.084l.123-2.227h8.516Z" transform="translate(-62.626 -9.144)" fill="#f5f5f5"/>
  <path id="Tracé_33" data-name="Tracé 33" d="M189.22,31.405h3.2c.052-.181.11-.368.174-.555s.129-.368.2-.549l.807-1.917h3.448l.523,2.182c.045.168.077.323.1.458s.045.265.058.381h3.164l-2.828-8.625a3.654,3.654,0,0,1-.136-.5,3.461,3.461,0,0,1-.09-.516H194c-.129.31-.226.562-.3.736s-.142.323-.194.426l-4.287,8.49Zm7.3-5.229H194.43l1.291-3.08.794,3.08" transform="translate(-67.01 -9.152)" fill="#f5f5f5"/>
  <path id="Tracé_34" data-name="Tracé 34" d="M208.77,21.746c-.019,1.917-.065,3.686-.155,5.313s-.207,3.067-.355,4.332h5.081a4.164,4.164,0,0,0,2.615-.7,2.439,2.439,0,0,0,.9-2.04,2.114,2.114,0,0,0-.6-1.62,2.95,2.95,0,0,0-1.827-.684,2.773,2.773,0,0,0,1.685-.807,2.246,2.246,0,0,0,.594-1.614,1.9,1.9,0,0,0-.736-1.659,4.156,4.156,0,0,0-2.363-.523H208.77Zm2.634,7.315v-.633c0-.136.006-.252.013-.355l.045-.794h1.317a1.419,1.419,0,0,1,.956.278,1.02,1.02,0,0,1,.316.82,1.049,1.049,0,0,1-.368.891,1.881,1.881,0,0,1-1.156.284H211.4v-.5m.207-4.564c.013-.155.019-.342.032-.549s.019-.336.026-.387h.846a1.667,1.667,0,0,1,.988.213.877.877,0,0,1,.278.736.887.887,0,0,1-.368.794,2.255,2.255,0,0,1-1.2.245h-.652l.058-1.052" transform="translate(-73.753 -9.144)" fill="#f5f5f5"/>
  <path id="Tracé_35" data-name="Tracé 35" d="M227.241,21.736c-.129.968-.226,2-.3,3.073s-.1,2.169-.1,3.28c0,.232.006.575.026,1.039,0,.019,0,.032.006.039.271.026.529.045.775.052s.484.013.71.013c.413,0,.807,0,1.207-.019s.852-.052,1.362-.09l-.123,2.266H223.6q.194-1.782.31-4.2t.161-5.462h3.157Z" transform="translate(-79.186 -9.14)" fill="#f5f5f5"/>
  <path id="Tracé_36" data-name="Tracé 36" d="M236.16,31.4q.194-1.782.316-4.2c.078-1.614.136-3.428.161-5.462h7.76l-.116,2.234c-.387-.019-.73-.032-1.033-.045s-.5-.019-.6-.019h-3.067c-.039.381-.065.652-.071.833s-.013.349-.013.5v.181H242c.323,0,.62,0,.872-.019s.491-.019.71-.039l-.116,2.279c-.155-.013-.329-.026-.51-.026s-.458-.006-.833-.006h-2.757c-.032.2-.052.394-.065.588s-.019.381-.019.575v.258a.531.531,0,0,0,.013.148c.284.032.581.058.91.071s.723.019,1.188.019c.491,0,.962-.006,1.42-.026s.872-.045,1.265-.084l-.11,2.247H236.16Z" transform="translate(-83.634 -9.145)" fill="#f5f5f5"/>
  <path id="Tracé_37" data-name="Tracé 37" d="M250.23,28.76a11.084,11.084,0,0,0,1.562.426,7,7,0,0,0,1.336.136,1.31,1.31,0,0,0,.717-.168.518.518,0,0,0,.271-.452c0-.271-.349-.671-1.039-1.207-.116-.09-.2-.161-.265-.207l-.019-.019c-1.562-1.233-2.337-2.279-2.337-3.151a2.211,2.211,0,0,1,1.027-1.93,5.058,5.058,0,0,1,2.866-.7,10.478,10.478,0,0,1,1.123.071,13.857,13.857,0,0,1,1.42.239l.181,2.189c-.523-.136-.943-.239-1.265-.3a4.758,4.758,0,0,0-.826-.084,2,2,0,0,0-.923.161.543.543,0,0,0-.31.5c0,.252.381.678,1.143,1.259.129.1.232.187.31.239a8.344,8.344,0,0,1,1.685,1.614,2.408,2.408,0,0,1,.452,1.395,2.3,2.3,0,0,1-1.02,2.04,5.484,5.484,0,0,1-3.034.684,10.625,10.625,0,0,1-1.3-.084q-.707-.077-1.511-.232l-.219-2.428Z" transform="translate(-88.617 -9.066)" fill="#f5f5f5"/>
</svg>
